<svg width="16" height="18" viewBox="0 0 16 18" fill="none" xmlns="http://www.w3.org/2000/svg">
<path d="M4.16357 4.12695H5.40869V2.5083C5.40869 2.17627 5.49414 1.92236 5.66504 1.74658C5.84082 1.56592 6.10449 1.47559 6.45605 1.47559H9.42236V4.896C9.42236 5.31104 9.52734 5.62354 9.7373 5.8335C9.95215 6.03857 10.2646 6.14111 10.6748 6.14111H13.8169V11.9639C13.8169 12.3008 13.729 12.5596 13.5532 12.7402C13.3823 12.916 13.1211 13.0039 12.7695 13.0039H11.4365V14.249H12.8574C13.5898 14.249 14.1392 14.0635 14.5054 13.6924C14.8765 13.3164 15.062 12.7598 15.062 12.0225V6.4707C15.062 6.03125 15.0107 5.65771 14.9082 5.3501C14.8057 5.04248 14.6201 4.75195 14.3516 4.47852L10.8799 0.940918C10.6211 0.682129 10.3379 0.499023 10.0303 0.391602C9.72754 0.279297 9.3833 0.223145 8.99756 0.223145H6.36084C5.63818 0.223145 5.09131 0.411133 4.72021 0.787109C4.34912 1.16309 4.16357 1.71729 4.16357 2.44971V4.12695ZM10.499 4.72754V2.0249L13.4946 5.07178H10.8433C10.6138 5.07178 10.499 4.95703 10.499 4.72754ZM0.765137 15.5308C0.765137 16.2681 0.950684 16.8223 1.32178 17.1934C1.69287 17.5693 2.24219 17.7573 2.96973 17.7573H9.46631C10.1938 17.7573 10.7432 17.5693 11.1143 17.1934C11.4854 16.8223 11.6709 16.2681 11.6709 15.5308V10.1694C11.6709 9.71045 11.627 9.35156 11.5391 9.09277C11.4561 8.8291 11.2729 8.55322 10.9897 8.26514L7.21045 4.4126C6.93701 4.13428 6.66602 3.95117 6.39746 3.86328C6.13379 3.77539 5.79932 3.73145 5.39404 3.73145H2.96973C2.24219 3.73145 1.69287 3.91943 1.32178 4.29541C0.950684 4.67139 0.765137 5.22559 0.765137 5.95801V15.5308ZM2.01758 15.4722V6.00928C2.01758 5.68213 2.10303 5.43066 2.27393 5.25488C2.44971 5.07422 2.71094 4.98389 3.05762 4.98389H5.24756V8.87305C5.24756 9.34668 5.36475 9.69824 5.59912 9.92773C5.8335 10.1572 6.18262 10.272 6.64648 10.272H10.4258V15.4722C10.4258 15.8091 10.3379 16.0654 10.1621 16.2412C9.98633 16.4219 9.7251 16.5122 9.37842 16.5122H3.05029C2.70361 16.5122 2.44482 16.4219 2.27393 16.2412C2.10303 16.0654 2.01758 15.8091 2.01758 15.4722ZM6.77832 9.15137C6.63672 9.15137 6.53418 9.11963 6.4707 9.05615C6.40723 8.99268 6.37549 8.89014 6.37549 8.74854V5.24023L10.2207 9.15137H6.77832Z" fill="white"/>
</svg>
